<?xml version="1.0" encoding="UTF-8" standalone="no"?>
<!DOCTYPE svg PUBLIC "-//W3C//DTD SVG 1.1//EN"
 "http://www.w3.org/Graphics/SVG/1.1/DTD/svg11.dtd">
<!-- Generated by graphviz version 2.43.0 (0)
 -->
<!-- Title: g Pages: 1 -->
<svg width="910pt" height="305pt"
 viewBox="0.00 0.00 909.69 305.00" xmlns="http://www.w3.org/2000/svg" xmlns:xlink="http://www.w3.org/1999/xlink">
<g id="graph0" class="graph" transform="scale(1 1) rotate(0) translate(4 301)">
<title>g</title>
<polygon fill="white" stroke="transparent" points="-4,4 -4,-301 905.69,-301 905.69,4 -4,4"/>
<!-- Exercici -->
<g id="node1" class="node">
<title>Exercici</title>
<ellipse fill="none" stroke="black" cx="405.74" cy="-105" rx="48.19" ry="18"/>
<text text-anchor="middle" x="405.74" y="-101.3" font-family="Times,serif" font-size="14.00">Exercici</text>
</g>
<!-- Resistencia -->
<g id="node2" class="node">
<title>Resistencia</title>
<ellipse fill="none" stroke="black" cx="451.74" cy="-18" rx="63.89" ry="18"/>
<text text-anchor="middle" x="451.74" y="-14.3" font-family="Times,serif" font-size="14.00">Resistencia</text>
</g>
<!-- Exercici&#45;&gt;Resistencia -->
<g id="edge1" class="edge">
<title>Exercici&#45;&gt;Resistencia</title>
<path fill="none" stroke="black" d="M414.83,-87.21C421.34,-75.18 430.23,-58.75 437.66,-45.03"/>
<polygon fill="black" stroke="black" points="440.84,-46.51 442.52,-36.05 434.68,-43.18 440.84,-46.51"/>
<text text-anchor="middle" x="476.24" y="-57.8" font-family="Times,serif" font-size="14.00">has subclass</text>
</g>
<!-- Realitzacio -->
<g id="node6" class="node">
<title>Realitzacio</title>
<ellipse fill="none" stroke="black" cx="679.74" cy="-18" rx="61.99" ry="18"/>
<text text-anchor="middle" x="679.74" y="-14.3" font-family="Times,serif" font-size="14.00">Realitzacio</text>
</g>
<!-- Exercici&#45;&gt;Realitzacio -->
<g id="edge7" class="edge">
<title>Exercici&#45;&gt;Realitzacio</title>
<path fill="none" stroke="black" d="M446.2,-95.22C469.73,-89.36 499.61,-80.59 524.74,-69 535.83,-63.89 536.59,-58.96 547.74,-54 570.29,-43.97 596.33,-36.31 619.29,-30.75"/>
<polygon fill="black" stroke="black" points="620.32,-34.1 629.26,-28.42 618.72,-27.29 620.32,-34.1"/>
<text text-anchor="middle" x="649.74" y="-57.8" font-family="Times,serif" font-size="14.00">es_realitza (Domain&gt;Range)</text>
</g>
<!-- Flexibilitat -->
<g id="node7" class="node">
<title>Flexibilitat</title>
<ellipse fill="none" stroke="black" cx="61.74" cy="-18" rx="61.99" ry="18"/>
<text text-anchor="middle" x="61.74" y="-14.3" font-family="Times,serif" font-size="14.00">Flexibilitat</text>
</g>
<!-- Exercici&#45;&gt;Flexibilitat -->
<g id="edge6" class="edge">
<title>Exercici&#45;&gt;Flexibilitat</title>
<path fill="none" stroke="black" d="M358.22,-101.67C287.8,-97.64 159.56,-87.92 117.74,-69 104.63,-63.06 92.4,-52.94 82.74,-43.35"/>
<polygon fill="black" stroke="black" points="85.02,-40.67 75.58,-35.86 79.96,-45.51 85.02,-40.67"/>
<text text-anchor="middle" x="163.24" y="-57.8" font-family="Times,serif" font-size="14.00">has subclass</text>
</g>
<!-- Fortalesa -->
<g id="node9" class="node">
<title>Fortalesa</title>
<ellipse fill="none" stroke="black" cx="195.74" cy="-18" rx="53.89" ry="18"/>
<text text-anchor="middle" x="195.74" y="-14.3" font-family="Times,serif" font-size="14.00">Fortalesa</text>
</g>
<!-- Exercici&#45;&gt;Fortalesa -->
<g id="edge10" class="edge">
<title>Exercici&#45;&gt;Fortalesa</title>
<path fill="none" stroke="black" d="M359.9,-99.12C314.51,-93.56 248.83,-83.36 227.74,-69 219.02,-63.06 212.15,-53.87 207.06,-44.98"/>
<polygon fill="black" stroke="black" points="210.09,-43.24 202.38,-35.97 203.88,-46.46 210.09,-43.24"/>
<text text-anchor="middle" x="273.24" y="-57.8" font-family="Times,serif" font-size="14.00">has subclass</text>
</g>
<!-- Equilibri -->
<g id="node10" class="node">
<title>Equilibri</title>
<ellipse fill="none" stroke="black" cx="318.74" cy="-18" rx="51.19" ry="18"/>
<text text-anchor="middle" x="318.74" y="-14.3" font-family="Times,serif" font-size="14.00">Equilibri</text>
</g>
<!-- Exercici&#45;&gt;Equilibri -->
<g id="edge11" class="edge">
<title>Exercici&#45;&gt;Equilibri</title>
<path fill="none" stroke="black" d="M367.82,-93.88C354.35,-88.52 340.2,-80.57 330.74,-69 325.56,-62.65 322.55,-54.43 320.83,-46.49"/>
<polygon fill="black" stroke="black" points="324.25,-45.73 319.22,-36.4 317.33,-46.83 324.25,-45.73"/>
<text text-anchor="middle" x="376.24" y="-57.8" font-family="Times,serif" font-size="14.00">has subclass</text>
</g>
<!-- owl:Thing -->
<g id="node3" class="node">
<title>owl:Thing</title>
<ellipse fill="none" stroke="black" cx="646.74" cy="-279" rx="55.79" ry="18"/>
<text text-anchor="middle" x="646.74" y="-275.3" font-family="Times,serif" font-size="14.00">owl:Thing</text>
</g>
<!-- owl:Thing&#45;&gt;Exercici -->
<g id="edge8" class="edge">
<title>owl:Thing&#45;&gt;Exercici</title>
<path fill="none" stroke="black" d="M650.86,-261.03C656.74,-232.2 663.7,-173.59 632.74,-141 610.22,-117.29 523.38,-109.6 463.89,-107.13"/>
<polygon fill="black" stroke="black" points="463.98,-103.63 453.85,-106.75 463.71,-110.62 463.98,-103.63"/>
<text text-anchor="middle" x="701.24" y="-188.3" font-family="Times,serif" font-size="14.00">has subclass</text>
</g>
<!-- Persona -->
<g id="node4" class="node">
<title>Persona</title>
<ellipse fill="none" stroke="black" cx="540.74" cy="-192" rx="48.19" ry="18"/>
<text text-anchor="middle" x="540.74" y="-188.3" font-family="Times,serif" font-size="14.00">Persona</text>
</g>
<!-- owl:Thing&#45;&gt;Persona -->
<g id="edge2" class="edge">
<title>owl:Thing&#45;&gt;Persona</title>
<path fill="none" stroke="black" d="M593.83,-273.06C574.28,-268.39 553.93,-259.56 541.74,-243 537.02,-236.58 535.56,-228.34 535.62,-220.41"/>
<polygon fill="black" stroke="black" points="539.12,-220.58 536.44,-210.33 532.14,-220.02 539.12,-220.58"/>
<text text-anchor="middle" x="587.24" y="-231.8" font-family="Times,serif" font-size="14.00">has subclass</text>
</g>
<!-- Solucio -->
<g id="node5" class="node">
<title>Solucio</title>
<ellipse fill="none" stroke="black" cx="411.74" cy="-192" rx="44.39" ry="18"/>
<text text-anchor="middle" x="411.74" y="-188.3" font-family="Times,serif" font-size="14.00">Solucio</text>
</g>
<!-- owl:Thing&#45;&gt;Solucio -->
<g id="edge5" class="edge">
<title>owl:Thing&#45;&gt;Solucio</title>
<path fill="none" stroke="black" d="M592.61,-274C540.03,-269.2 464.73,-259.65 440.74,-243 432.39,-237.2 426.11,-228.16 421.56,-219.35"/>
<polygon fill="black" stroke="black" points="424.65,-217.68 417.3,-210.04 418.28,-220.59 424.65,-217.68"/>
<text text-anchor="middle" x="486.24" y="-231.8" font-family="Times,serif" font-size="14.00">has subclass</text>
</g>
<!-- owl:Thing&#45;&gt;Realitzacio -->
<g id="edge4" class="edge">
<title>owl:Thing&#45;&gt;Realitzacio</title>
<path fill="none" stroke="black" d="M682.54,-265.1C706.53,-254.36 736.28,-236.51 750.74,-210 783.95,-149.13 788.52,-112.78 751.74,-54 747.03,-46.46 740.17,-40.51 732.54,-35.81"/>
<polygon fill="black" stroke="black" points="733.78,-32.5 723.31,-30.86 730.47,-38.67 733.78,-32.5"/>
<text text-anchor="middle" x="821.24" y="-144.8" font-family="Times,serif" font-size="14.00">has subclass</text>
</g>
<!-- Patologia -->
<g id="node8" class="node">
<title>Patologia</title>
<ellipse fill="none" stroke="black" cx="847.74" cy="-192" rx="53.89" ry="18"/>
<text text-anchor="middle" x="847.74" y="-188.3" font-family="Times,serif" font-size="14.00">Patologia</text>
</g>
<!-- owl:Thing&#45;&gt;Patologia -->
<g id="edge9" class="edge">
<title>owl:Thing&#45;&gt;Patologia</title>
<path fill="none" stroke="black" d="M695.05,-269.86C720.99,-264.37 753.03,-255.76 779.74,-243 794.78,-235.81 809.88,-225.14 822.02,-215.5"/>
<polygon fill="black" stroke="black" points="824.39,-218.09 829.91,-209.05 819.96,-212.67 824.39,-218.09"/>
<text text-anchor="middle" x="848.24" y="-231.8" font-family="Times,serif" font-size="14.00">has subclass</text>
</g>
<!-- Solucio&#45;&gt;Exercici -->
<g id="edge3" class="edge">
<title>Solucio&#45;&gt;Exercici</title>
<path fill="none" stroke="black" d="M408.88,-173.96C408.04,-168.26 407.22,-161.87 406.74,-156 406.15,-148.67 405.84,-140.73 405.69,-133.37"/>
<polygon fill="black" stroke="black" points="409.19,-133.11 405.57,-123.15 402.19,-133.19 409.19,-133.11"/>
<text text-anchor="middle" x="519.74" y="-144.8" font-family="Times,serif" font-size="14.00">composta_per (Domain&gt;Range)</text>
</g>
</g>
</svg>
